<svg xmlns="http://www.w3.org/2000/svg" viewBox="0 0 220 48" role="img" aria-label="Tunelito">
  <rect width="48" height="48" rx="12" fill="#14b8a6"/>
  <path d="M13 13h22v7h-8v15h-7V20h-7z" fill="#042f2e"/>
  <path d="M35 28c0 5-4 8-10 8-2.4 0-4.8-.5-6.5-1.4v-5.3c1.8 1.3 4 2 6.4 2 2 0 3.2-.7 3.2-1.9 0-3.5-9.6-1.3-9.6-8.7 0-4.2 3.5-7.1 8.9-7.1 2.2 0 4.1.4 5.8 1.2v5.1c-1.7-1-3.6-1.5-5.6-1.5-1.8 0-2.8.6-2.8 1.7 0 3.2 9.2 1.1 9.2 7.9z" fill="#ccfbf1" opacity=".9"/>
  <text x="62" y="31" fill="#f8fafc" font-family="Inter, ui-sans-serif, system-ui, sans-serif" font-size="25" font-weight="700">Tunelito</text>
</svg>
